<mxfile host="app.diagrams.net" modified="2023-07-31T16:05:40.737Z" agent="Mozilla/5.0 (Macintosh; Intel Mac OS X 10_15_7) AppleWebKit/537.36 (KHTML, like Gecko) Chrome/115.0.0.0 Safari/537.36" version="21.6.6" etag="WQYSqV9UsY8s_TaDMBxi" type="device">
  <diagram id="De9Vc6kwO28veqgYgvxa" name="Page-1">
    <mxGraphModel dx="1698" dy="764" grid="1" gridSize="10" guides="1" tooltips="1" connect="1" arrows="1" fold="1" page="1" pageScale="1" pageWidth="1169" pageHeight="827" math="0" shadow="0">
      <root>
        <mxCell id="0" />
        <mxCell id="1" parent="0" />
        <mxCell id="2" value="" style="whiteSpace=wrap;html=1;aspect=fixed;" parent="1" vertex="1">
          <mxGeometry x="40" y="360" width="40" height="40" as="geometry" />
        </mxCell>
        <mxCell id="23" style="edgeStyle=none;html=1;exitX=0;exitY=0.5;exitDx=0;exitDy=0;entryX=0;entryY=0.5;entryDx=0;entryDy=0;" parent="1" target="3" edge="1">
          <mxGeometry relative="1" as="geometry">
            <mxPoint x="80" y="380" as="sourcePoint" />
          </mxGeometry>
        </mxCell>
        <mxCell id="45" style="edgeStyle=none;html=1;exitX=1;exitY=0.5;exitDx=0;exitDy=0;entryX=0;entryY=0.5;entryDx=0;entryDy=0;" parent="1" source="3" edge="1">
          <mxGeometry relative="1" as="geometry">
            <mxPoint x="200" y="380" as="targetPoint" />
          </mxGeometry>
        </mxCell>
        <mxCell id="3" value="" style="whiteSpace=wrap;html=1;aspect=fixed;" parent="1" vertex="1">
          <mxGeometry x="120" y="585" width="40" height="40" as="geometry" />
        </mxCell>
        <mxCell id="22" style="edgeStyle=none;html=1;exitX=0;exitY=0.5;exitDx=0;exitDy=0;entryX=0;entryY=0.5;entryDx=0;entryDy=0;" parent="1" target="4" edge="1">
          <mxGeometry relative="1" as="geometry">
            <mxPoint x="80" y="380" as="sourcePoint" />
          </mxGeometry>
        </mxCell>
        <mxCell id="53" style="edgeStyle=none;html=1;exitX=1;exitY=0.5;exitDx=0;exitDy=0;" parent="1" source="4" edge="1">
          <mxGeometry relative="1" as="geometry">
            <mxPoint x="200" y="380" as="targetPoint" />
          </mxGeometry>
        </mxCell>
        <mxCell id="4" value="" style="whiteSpace=wrap;html=1;aspect=fixed;" parent="1" vertex="1">
          <mxGeometry x="120" y="535" width="40" height="40" as="geometry" />
        </mxCell>
        <mxCell id="21" style="edgeStyle=none;html=1;exitX=1;exitY=0.5;exitDx=0;exitDy=0;entryX=0;entryY=0.5;entryDx=0;entryDy=0;" parent="1" source="2" target="5" edge="1">
          <mxGeometry relative="1" as="geometry" />
        </mxCell>
        <mxCell id="50" style="edgeStyle=none;html=1;exitX=1;exitY=0.5;exitDx=0;exitDy=0;" parent="1" source="5" edge="1">
          <mxGeometry relative="1" as="geometry">
            <mxPoint x="200" y="380" as="targetPoint" />
          </mxGeometry>
        </mxCell>
        <mxCell id="5" value="" style="whiteSpace=wrap;html=1;aspect=fixed;" parent="1" vertex="1">
          <mxGeometry x="120" y="485" width="40" height="40" as="geometry" />
        </mxCell>
        <mxCell id="20" style="edgeStyle=none;html=1;exitX=1;exitY=0.5;exitDx=0;exitDy=0;entryX=0;entryY=0.5;entryDx=0;entryDy=0;" parent="1" source="2" target="6" edge="1">
          <mxGeometry relative="1" as="geometry" />
        </mxCell>
        <mxCell id="52" style="edgeStyle=none;html=1;exitX=1;exitY=0.5;exitDx=0;exitDy=0;" parent="1" source="6" edge="1">
          <mxGeometry relative="1" as="geometry">
            <mxPoint x="200" y="380" as="targetPoint" />
          </mxGeometry>
        </mxCell>
        <mxCell id="6" value="" style="whiteSpace=wrap;html=1;aspect=fixed;" parent="1" vertex="1">
          <mxGeometry x="120" y="435" width="40" height="40" as="geometry" />
        </mxCell>
        <mxCell id="19" style="edgeStyle=none;html=1;exitX=0;exitY=0.5;exitDx=0;exitDy=0;entryX=0;entryY=0.5;entryDx=0;entryDy=0;" parent="1" target="7" edge="1">
          <mxGeometry relative="1" as="geometry">
            <mxPoint x="80" y="380" as="sourcePoint" />
          </mxGeometry>
        </mxCell>
        <mxCell id="47" style="edgeStyle=none;html=1;exitX=1;exitY=0.5;exitDx=0;exitDy=0;entryX=0;entryY=0.5;entryDx=0;entryDy=0;" parent="1" source="7" edge="1">
          <mxGeometry relative="1" as="geometry">
            <mxPoint x="200" y="380" as="targetPoint" />
          </mxGeometry>
        </mxCell>
        <mxCell id="7" value="" style="whiteSpace=wrap;html=1;aspect=fixed;" parent="1" vertex="1">
          <mxGeometry x="120" y="385" width="40" height="40" as="geometry" />
        </mxCell>
        <mxCell id="18" style="edgeStyle=none;html=1;exitX=0;exitY=0.5;exitDx=0;exitDy=0;entryX=0;entryY=0.5;entryDx=0;entryDy=0;" parent="1" target="8" edge="1">
          <mxGeometry relative="1" as="geometry">
            <mxPoint x="80" y="380" as="sourcePoint" />
          </mxGeometry>
        </mxCell>
        <mxCell id="48" style="edgeStyle=none;html=1;exitX=1;exitY=0.5;exitDx=0;exitDy=0;" parent="1" source="8" edge="1">
          <mxGeometry relative="1" as="geometry">
            <mxPoint x="200" y="380" as="targetPoint" />
          </mxGeometry>
        </mxCell>
        <mxCell id="8" value="" style="whiteSpace=wrap;html=1;aspect=fixed;" parent="1" vertex="1">
          <mxGeometry x="120" y="335" width="40" height="40" as="geometry" />
        </mxCell>
        <mxCell id="17" style="edgeStyle=none;html=1;exitX=0;exitY=0.5;exitDx=0;exitDy=0;entryX=0;entryY=0.5;entryDx=0;entryDy=0;" parent="1" target="9" edge="1">
          <mxGeometry relative="1" as="geometry">
            <mxPoint x="80" y="380" as="sourcePoint" />
          </mxGeometry>
        </mxCell>
        <mxCell id="51" style="edgeStyle=none;html=1;exitX=1;exitY=0.5;exitDx=0;exitDy=0;entryX=0;entryY=0.5;entryDx=0;entryDy=0;" parent="1" source="9" edge="1">
          <mxGeometry relative="1" as="geometry">
            <mxPoint x="200" y="380" as="targetPoint" />
          </mxGeometry>
        </mxCell>
        <mxCell id="9" value="" style="whiteSpace=wrap;html=1;aspect=fixed;" parent="1" vertex="1">
          <mxGeometry x="120" y="285" width="40" height="40" as="geometry" />
        </mxCell>
        <mxCell id="16" style="edgeStyle=none;html=1;exitX=0;exitY=0.5;exitDx=0;exitDy=0;entryX=0;entryY=0.5;entryDx=0;entryDy=0;" parent="1" target="10" edge="1">
          <mxGeometry relative="1" as="geometry">
            <mxPoint x="80" y="380" as="sourcePoint" />
          </mxGeometry>
        </mxCell>
        <mxCell id="49" style="edgeStyle=none;html=1;exitX=1;exitY=0.5;exitDx=0;exitDy=0;entryX=0;entryY=0.5;entryDx=0;entryDy=0;" parent="1" source="10" edge="1">
          <mxGeometry relative="1" as="geometry">
            <mxPoint x="200" y="380" as="targetPoint" />
          </mxGeometry>
        </mxCell>
        <mxCell id="10" value="" style="whiteSpace=wrap;html=1;aspect=fixed;" parent="1" vertex="1">
          <mxGeometry x="120" y="235" width="40" height="40" as="geometry" />
        </mxCell>
        <mxCell id="15" style="edgeStyle=none;html=1;exitX=0;exitY=0.5;exitDx=0;exitDy=0;entryX=0;entryY=0.5;entryDx=0;entryDy=0;" parent="1" target="11" edge="1">
          <mxGeometry relative="1" as="geometry">
            <mxPoint x="80" y="380" as="sourcePoint" />
          </mxGeometry>
        </mxCell>
        <mxCell id="54" style="edgeStyle=none;html=1;exitX=1;exitY=0.5;exitDx=0;exitDy=0;" parent="1" source="11" edge="1">
          <mxGeometry relative="1" as="geometry">
            <mxPoint x="200" y="380" as="targetPoint" />
          </mxGeometry>
        </mxCell>
        <mxCell id="11" value="" style="whiteSpace=wrap;html=1;aspect=fixed;" parent="1" vertex="1">
          <mxGeometry x="120" y="185" width="40" height="40" as="geometry" />
        </mxCell>
        <mxCell id="14" style="edgeStyle=none;html=1;exitX=1;exitY=0.5;exitDx=0;exitDy=0;entryX=0;entryY=0.5;entryDx=0;entryDy=0;" parent="1" source="2" target="12" edge="1">
          <mxGeometry relative="1" as="geometry" />
        </mxCell>
        <mxCell id="46" style="edgeStyle=none;html=1;exitX=1;exitY=0.5;exitDx=0;exitDy=0;" parent="1" source="12" edge="1">
          <mxGeometry relative="1" as="geometry">
            <mxPoint x="200" y="380" as="targetPoint" />
          </mxGeometry>
        </mxCell>
        <mxCell id="12" value="" style="whiteSpace=wrap;html=1;aspect=fixed;" parent="1" vertex="1">
          <mxGeometry x="120" y="135" width="40" height="40" as="geometry" />
        </mxCell>
        <mxCell id="82" style="edgeStyle=none;html=1;exitX=1;exitY=0.5;exitDx=0;exitDy=0;entryX=0;entryY=0.5;entryDx=0;entryDy=0;" parent="1" target="55" edge="1">
          <mxGeometry relative="1" as="geometry">
            <mxPoint x="320" y="380" as="sourcePoint" />
          </mxGeometry>
        </mxCell>
        <mxCell id="55" value="ENC" style="rounded=0;whiteSpace=wrap;html=1;" parent="1" vertex="1">
          <mxGeometry x="360" y="280" width="40" height="200" as="geometry" />
        </mxCell>
        <mxCell id="84" style="edgeStyle=none;html=1;exitX=1;exitY=0.5;exitDx=0;exitDy=0;entryX=0;entryY=0.5;entryDx=0;entryDy=0;" parent="1" source="55" edge="1">
          <mxGeometry relative="1" as="geometry">
            <mxPoint x="440" y="220" as="targetPoint" />
          </mxGeometry>
        </mxCell>
        <mxCell id="87" style="edgeStyle=none;html=1;exitX=1;exitY=0.5;exitDx=0;exitDy=0;entryX=0;entryY=0.5;entryDx=0;entryDy=0;" parent="1" target="59" edge="1">
          <mxGeometry relative="1" as="geometry">
            <mxPoint x="560" y="220" as="sourcePoint" />
          </mxGeometry>
        </mxCell>
        <mxCell id="138" style="edgeStyle=none;html=1;exitX=1;exitY=0.5;exitDx=0;exitDy=0;entryX=0.203;entryY=1.005;entryDx=0;entryDy=0;entryPerimeter=0;fontSize=12;fontColor=#000000;" parent="1" source="59" edge="1">
          <mxGeometry relative="1" as="geometry">
            <mxPoint x="689.8499999999999" y="220.36249999999995" as="targetPoint" />
          </mxGeometry>
        </mxCell>
        <mxCell id="59" value="" style="whiteSpace=wrap;html=1;aspect=fixed;" parent="1" vertex="1">
          <mxGeometry x="600" y="200" width="40" height="40" as="geometry" />
        </mxCell>
        <mxCell id="121" value="&lt;b&gt;Input&lt;/b&gt;" style="text;html=1;strokeColor=none;fillColor=none;align=center;verticalAlign=middle;whiteSpace=wrap;rounded=0;" parent="1" vertex="1">
          <mxGeometry x="110" y="80" width="60" height="40" as="geometry" />
        </mxCell>
        <mxCell id="124" value="&lt;b&gt;Org. Image&lt;/b&gt;" style="text;html=1;strokeColor=none;fillColor=none;align=center;verticalAlign=middle;whiteSpace=wrap;rounded=0;" parent="1" vertex="1">
          <mxGeometry x="30" y="80" width="60" height="40" as="geometry" />
        </mxCell>
        <mxCell id="125" value="&lt;font style=&quot;font-size: 8px;&quot;&gt;GT&lt;/font&gt;" style="text;html=1;strokeColor=none;fillColor=none;align=center;verticalAlign=middle;whiteSpace=wrap;rounded=0;" parent="1" vertex="1">
          <mxGeometry x="590" y="175" width="60" height="30" as="geometry" />
        </mxCell>
        <mxCell id="131" value="VIDEO SWIN ENCODER" style="shape=trapezoid;perimeter=trapezoidPerimeter;whiteSpace=wrap;fixedSize=1;fontSize=12;rotation=90;html=1;" parent="1" vertex="1">
          <mxGeometry x="20" y="320" width="480" height="120" as="geometry" />
        </mxCell>
        <mxCell id="132" value="3DUNET&lt;br&gt;DECODER GT" style="shape=trapezoid;perimeter=trapezoidPerimeter;whiteSpace=wrap;html=1;fixedSize=1;fontSize=12;rotation=-90;" parent="1" vertex="1">
          <mxGeometry x="440" y="160" width="120" height="120" as="geometry" />
        </mxCell>
      </root>
    </mxGraphModel>
  </diagram>
</mxfile>
